<svg viewBox="0 0 932 220" fill="none" xmlns="http://www.w3.org/2000/svg">
<rect x="7.5" y="7.5" width="185" height="205" stroke="#141516" stroke-width="15"/>
<path d="M88.9954 8.12936L103.117 3.67969L185.939 207.232L171.817 211.682L88.9954 8.12936Z" fill="#141516"/>
<path d="M51.9954 11.3778L66.1174 6.92812L148.227 208.733L134.105 213.182L51.9954 11.3778Z" fill="#141516"/>
<path d="M193 17.1597L182.394 7.82587L8.99609 202.608L19.6027 211.941L193 17.1597Z" fill="#141516"/>
<path d="M13.9192 11.5119L28.0413 7.06219L110.717 210.258L96.5953 214.708L13.9192 11.5119Z" fill="#141516"/>
<path d="M272.598 159.026V57H316.104C320.693 57 324.917 57.4883 328.774 58.4648C332.632 59.3926 335.928 60.8818 338.662 62.9326C341.396 64.9834 343.521 67.6689 345.034 70.9893C346.548 74.2607 347.305 78.2158 347.305 82.8545C347.305 88.665 345.913 93.5234 343.13 97.4297C340.396 101.287 336.636 104.119 331.851 105.926C337.271 107.439 341.567 110.174 344.741 114.129C347.964 118.084 349.575 123.138 349.575 129.29C349.575 134.71 348.794 139.324 347.231 143.133C345.669 146.941 343.447 150.018 340.566 152.361C337.734 154.705 334.292 156.414 330.239 157.488C326.235 158.514 321.768 159.026 316.836 159.026H272.598ZM292.08 142.547H319.692C322.915 142.547 325.308 141.814 326.87 140.35C328.481 138.885 329.287 136.565 329.287 133.392V123.357C329.287 117.547 326.284 114.642 320.278 114.642H292.08V142.547ZM292.08 98.1621H318.667C321.89 98.1621 324.087 97.4053 325.259 95.8916C326.431 94.3779 327.017 92.1318 327.017 89.1533V81.3164C327.017 76.1406 324.233 73.5527 318.667 73.5527H292.08V98.1621Z" fill="#141516"/>
<path d="M358.262 120.794C358.262 114.788 359.067 109.344 360.679 104.461C362.29 99.5293 364.609 95.3057 367.637 91.79C370.713 88.2256 374.473 85.4912 378.916 83.5869C383.359 81.6826 388.438 80.7305 394.15 80.7305C399.863 80.7305 404.941 81.6826 409.385 83.5869C413.828 85.4912 417.563 88.2256 420.591 91.79C423.667 95.3057 425.986 99.5293 427.549 104.461C429.16 109.344 429.966 114.788 429.966 120.794C429.966 126.8 429.16 132.244 427.549 137.127C425.986 142.01 423.667 146.233 420.591 149.798C417.563 153.362 413.828 156.097 409.385 158.001C404.941 159.905 399.863 160.857 394.15 160.857C388.438 160.857 383.359 159.905 378.916 158.001C374.473 156.097 370.713 153.362 367.637 149.798C364.609 146.233 362.29 142.01 360.679 137.127C359.067 132.244 358.262 126.8 358.262 120.794ZM377.817 131.854C377.817 136.443 379.355 140.008 382.432 142.547C385.557 145.037 389.463 146.282 394.15 146.282C398.838 146.282 402.72 145.062 405.796 142.62C408.921 140.179 410.483 136.59 410.483 131.854V109.661C410.483 104.974 408.921 101.409 405.796 98.9678C402.72 96.5264 398.838 95.3057 394.15 95.3057C389.463 95.3057 385.557 96.5508 382.432 99.041C379.355 101.531 377.817 105.071 377.817 109.661V131.854Z" fill="#141516"/>
<path d="M440.923 132.659V82.5615H459.673V131.268C459.673 135.76 460.552 139.275 462.31 141.814C464.067 144.305 467.192 145.55 471.685 145.55C476.763 145.55 480.767 143.816 483.696 140.35C486.626 136.883 488.091 132.366 488.091 126.8V82.5615H506.841V159.026H488.091V147.894C485.796 152.093 482.817 155.315 479.155 157.562C475.493 159.759 470.952 160.857 465.532 160.857C457.329 160.857 451.177 158.392 447.075 153.46C442.974 148.479 440.923 141.546 440.923 132.659Z" fill="#141516"/>
<path d="M503.516 170.013H524.17V82.5615H542.92V184.515H503.516V170.013ZM523.877 73.6992V57H543.213V73.6992H523.877Z" fill="#141516"/>
<path d="M554.609 120.647C554.609 114.642 555.439 109.197 557.1 104.314C558.76 99.3828 561.079 95.1836 564.058 91.7168C567.085 88.2012 570.723 85.4912 574.971 83.5869C579.219 81.6826 583.931 80.7305 589.106 80.7305C594.282 80.7305 598.97 81.6582 603.169 83.5137C607.417 85.3691 611.03 87.9326 614.009 91.2041C617.036 94.4268 619.331 98.2842 620.894 102.776C622.505 107.269 623.311 112.127 623.311 117.352V126.8H574.165V131.854C574.165 136.443 575.654 140.008 578.633 142.547C581.66 145.037 585.225 146.282 589.326 146.282C593.428 146.282 596.772 145.208 599.36 143.06C601.948 140.911 603.486 137.884 603.975 133.978H622.725C621.504 142.474 617.915 149.09 611.958 153.826C606.05 158.514 598.433 160.857 589.106 160.857C583.687 160.857 578.828 159.881 574.531 157.928C570.283 155.975 566.67 153.24 563.691 149.725C560.762 146.209 558.516 141.985 556.953 137.054C555.391 132.122 554.609 126.653 554.609 120.647ZM574.165 112.225H604.121V109.515C604.121 105.315 602.705 101.897 599.873 99.2607C597.041 96.624 593.452 95.3057 589.106 95.3057C584.81 95.3057 581.245 96.624 578.413 99.2607C575.581 101.897 574.165 105.315 574.165 109.515V112.225Z" fill="#141516"/>
<path d="M630.605 120.647C630.605 114.642 631.436 109.197 633.096 104.314C634.756 99.3828 637.075 95.1836 640.054 91.7168C643.081 88.2012 646.719 85.4912 650.967 83.5869C655.215 81.6826 659.927 80.7305 665.103 80.7305C670.278 80.7305 674.966 81.6582 679.165 83.5137C683.413 85.3691 687.026 87.9326 690.005 91.2041C693.032 94.4268 695.327 98.2842 696.89 102.776C698.501 107.269 699.307 112.127 699.307 117.352V126.8H650.161V131.854C650.161 136.443 651.65 140.008 654.629 142.547C657.656 145.037 661.221 146.282 665.322 146.282C669.424 146.282 672.769 145.208 675.356 143.06C677.944 140.911 679.482 137.884 679.971 133.978H698.721C697.5 142.474 693.911 149.09 687.954 153.826C682.046 158.514 674.429 160.857 665.103 160.857C659.683 160.857 654.824 159.881 650.527 157.928C646.279 155.975 642.666 153.24 639.688 149.725C636.758 146.209 634.512 141.985 632.949 137.054C631.387 132.122 630.605 126.653 630.605 120.647ZM650.161 112.225H680.117V109.515C680.117 105.315 678.701 101.897 675.869 99.2607C673.037 96.624 669.448 95.3057 665.103 95.3057C660.806 95.3057 657.241 96.624 654.409 99.2607C651.577 101.897 650.161 105.315 650.161 109.515V112.225Z" fill="#141516"/>
<path d="M740.996 159.026V57H784.502C789.092 57 793.315 57.4883 797.173 58.4648C801.03 59.3926 804.326 60.8818 807.061 62.9326C809.795 64.9834 811.919 67.6689 813.433 70.9893C814.946 74.2607 815.703 78.2158 815.703 82.8545C815.703 88.665 814.312 93.5234 811.528 97.4297C808.794 101.287 805.034 104.119 800.249 105.926C805.669 107.439 809.966 110.174 813.14 114.129C816.362 118.084 817.974 123.138 817.974 129.29C817.974 134.71 817.192 139.324 815.63 143.133C814.067 146.941 811.846 150.018 808.965 152.361C806.133 154.705 802.69 156.414 798.638 157.488C794.634 158.514 790.166 159.026 785.234 159.026H740.996ZM760.479 142.547H788.091C791.313 142.547 793.706 141.814 795.269 140.35C796.88 138.885 797.686 136.565 797.686 133.392V123.357C797.686 117.547 794.683 114.642 788.677 114.642H760.479V142.547ZM760.479 98.1621H787.065C790.288 98.1621 792.485 97.4053 793.657 95.8916C794.829 94.3779 795.415 92.1318 795.415 89.1533V81.3164C795.415 76.1406 792.632 73.5527 787.065 73.5527H760.479V98.1621Z" fill="#141516"/>
<path d="M830.322 73.6992V57H849.658V73.6992H830.322ZM830.615 159.026V82.5615H849.365V159.026H830.615Z" fill="#141516"/>
<path d="M865.01 159.026V82.5615H883.76V93.6211C886.055 89.5195 889.033 86.3457 892.695 84.0996C896.406 81.8535 900.972 80.7305 906.392 80.7305C914.985 80.7305 921.309 83.2451 925.361 88.2744C929.414 93.2549 931.44 100.14 931.44 108.929V159.026H912.69V110.247C912.69 105.755 911.738 102.264 909.834 99.7734C907.93 97.2832 904.731 96.0381 900.239 96.0381C895.063 96.0381 891.011 97.7715 888.081 101.238C885.2 104.656 883.76 109.173 883.76 114.788V159.026H865.01Z" fill="#141516"/>
</svg>
